<?xml version="1.0" encoding="UTF-8" standalone="no"?><!DOCTYPE svg PUBLIC "-//W3C//DTD SVG 1.1//EN" "http://www.w3.org/Graphics/SVG/1.1/DTD/svg11.dtd">
<svg width="100%" height="100%" viewBox="0 0 462 533" version="1.1" xmlns="http://www.w3.org/2000/svg" xmlns:xlink="http://www.w3.org/1999/xlink" xml:space="preserve" xmlns:serif="http://www.serif.com/"
     style="fill-rule:evenodd;clip-rule:evenodd;stroke-linejoin:round;stroke-miterlimit:2;"><path id="local" d="M0.072,381.196c-0,-0 -0.161,18.451 -0,23c0.246,6.961 12.398,12.925 16,15c9.335,5.378 189.997,104.237 201,110c11.002,5.763 20.86,3.279 29,-1c9.603,-5.049 197.73,-107.65 204,-111c6.269,-3.351 10.801,-6.651 11,-16c0.198,-9.349 -0.011,-16.596 -0,-23c0.01,-6.405 -3.094,-8.275 -8,-11c-4.907,-2.725 -16.548,-8.915 -22,-12c-6.069,-3.434 -11.923,-2.361 -18,1c-6.078,3.361 -159.478,87.102 -166,91c-9.123,5.452 -17.985,7.484 -28.152,1.829c-10.167,-5.654 -163.654,-89.044 -170.848,-92.829c-8.218,-4.323 -13.335,-2.528 -20,1c-9.096,4.814 -13.965,6.818 -20,11c-6.036,4.182 -7.671,8.42 -8,13Zm151.25,52.5c8.14,-0 14.75,6.609 14.75,14.75c-0,8.141 -6.61,14.75 -14.75,14.75c-8.141,-0 -14.75,-6.609 -14.75,-14.75c-0,-8.141 6.609,-14.75 14.75,-14.75Zm-42.75,-22.75c8.14,-0 14.75,6.609 14.75,14.75c-0,8.141 -6.61,14.75 -14.75,14.75c-8.141,-0 -14.75,-6.609 -14.75,-14.75c-0,-8.141 6.609,-14.75 14.75,-14.75Zm-43.75,-24.25c8.14,-0 14.75,6.609 14.75,14.75c-0,8.141 -6.61,14.75 -14.75,14.75c-8.141,-0 -14.75,-6.609 -14.75,-14.75c-0,-8.141 6.609,-14.75 14.75,-14.75Z" style="fill:#b5e4f4;"/>
    <path id="mock"
          d="M0.072,265.302c-0,0 -0.161,18.451 -0,23c0.246,6.961 12.398,12.925 16,15c9.335,5.379 189.997,104.238 201,110c11.002,5.763 20.86,3.28 29,-1c9.603,-5.049 197.73,-107.649 204,-111c6.269,-3.35 10.801,-6.651 11,-16c0.198,-9.349 -0.011,-17.702 -0,-24.106c0.01,-6.405 -2.594,-9.775 -7.5,-12.5c-4.907,-2.725 -17.548,-8.915 -23,-12c-6.069,-3.434 -11.923,-2.861 -18,0.5c-6.078,3.361 -161.978,89.102 -168.5,93c-9.123,5.452 -15.834,5.654 -26,-0c-10.167,-5.654 -161.306,-89.215 -168.5,-93c-8.218,-4.323 -15.335,-3.028 -22,0.5c-9.096,4.814 -14.159,7.798 -20.5,11.5c-7.559,4.413 -6.671,11.526 -7,16.106Zm62,-0.606c7.124,3.949 121.782,66.536 133,72.5c13.872,7.375 3.794,26.706 -10.5,19c-12.699,-6.846 -129.24,-70.415 -135.5,-74c-12.756,-7.305 -1.752,-25.677 13,-17.5Z"
          style="fill:#d7f1fa;"/>
    <g><path id="plugin" d="M0.525,135.548c0,0 -0.661,28.724 -0.5,33.273c0.246,6.96 12.398,12.925 16,15c9.335,5.378 189.998,104.237 201,110c11.003,5.763 20.861,3.279 29,-1c9.604,-5.049 197.731,-107.65 204,-111c6.27,-3.351 10.802,-6.651 11,-16c0.198,-9.349 0.49,-27.368 0.5,-33.773c0.011,-6.404 -4.093,-11.275 -9,-14c-4.906,-2.725 -203.047,-112.415 -208.5,-115.5c-6.069,-3.434 -15.423,-3.361 -21.5,0c-6.077,3.361 -208.658,114.298 -215,118c-7.559,4.413 -6.671,10.42 -7,15Zm327.5,75.5c0,0 -23.392,-12.223 -34,-19c-10.608,-6.777 -14.906,-10.858 -14,-26c0.907,-15.142 4.633,-18.96 12,-23c7.368,-4.04 19,-10 19,-10l19,12l0,-44l-63,0l22,18c0,0 -2.73,1.911 -9,6c-6.27,4.09 -21.531,14.98 -22,30c-0.469,15.02 -0.401,19 -0.401,19c-0,0 -18.022,-13.779 -32.131,-25.45c-9.839,-8.139 -21.569,-11.284 -35.468,-11.55c-13.898,-0.266 -31.821,0.001 -46,0c-8.823,-8.992 -14.661,-12.564 -24,-12.5c-9.339,0.064 -28.91,6.286 -29,21.5c-0.09,15.215 10.802,24.157 27,24c16.199,-0.156 20.722,-6.393 26.5,-12c6.47,0.125 33.886,-0.22 43.5,0c5.812,0.133 11.595,0.053 18.5,3.5c4.518,2.256 9.392,6.593 15.5,11.5c17.961,14.429 36.387,26.15 82,50c0,0 -58.358,33.474 -65,37c-3.623,1.924 -10.201,3.168 -16,0c-8.386,-4.581 -183.535,-100.171 -189,-104c-1.848,-1.294 -4.504,-3.126 -4.5,-7.5c0.003,-2.759 0.257,-5.515 3.5,-7.5c9.587,-5.867 185.579,-102.379 192,-106c3.022,-1.704 9.094,-3.93 15,0c9.95,6.62 181.158,99.547 187.5,103c7.051,3.838 9.185,13.223 1,18c-6.449,3.765 -100.5,55 -100.5,55Z" style="fill:#fff;"/>
        <ellipse cx="118.572" cy="148.196" rx="13.5" ry="9" style="fill:#fff;"/></g></svg>